<svg xmlns="http://www.w3.org/2000/svg" version="1.1" xmlns:xlink="http://www.w3.org/1999/xlink" xmlns:svgjs="http://svgjs.dev/svgjs" width="1440" height="560" preserveAspectRatio="none" viewBox="0 0 1440 560"><g mask="url(&quot;#SvgjsMask1007&quot;)" fill="none"><rect width="1440" height="560" x="0" y="0" fill="rgba(0, 0, 0, 1)"></rect><path d="M140 124.25C126.96 124.25 118.28 127.43 117.89 140C115.86 205.31 124.6 211.02 135.17 280C135.65 283.14 137.65 284.24 140 284.24C142.19 284.24 142.27 282.26 144.24 280C205.27 210.14 267.26 186.23 266 140C265.14 108.36 201.01 124.25 140 124.25" stroke="rgba(255, 255, 255, 1)" stroke-width="2"></path><path d="M700 101.11C690.92 119.57 686.27 122.83 686.27 140C686.27 146.88 692.09 149.21 700 149.21C730.77 149.21 733.06 149.07 763.64 140C803.06 128.31 816.96 137.41 840 107.69C871.23 67.41 836.45 27.48 872.18 0C906.45 -26.36 926.09 0 980 0C1032.7 0 1038.04 -12.4 1085.39 0C1108.04 5.93 1099.71 36.67 1120 36.67C1151.24 36.67 1152.01 9.54 1188.44 0C1222.01 -8.79 1224.22 0 1260 0C1293.54 0 1303.1 -18.17 1327.08 0C1373.1 34.86 1370.03 106.06 1400 106.06C1426.38 106.06 1402.63 28.13 1439.77 0C1472.63 -24.9 1519.09 -29.21 1540 0C1569.21 40.79 1540 70 1540 140C1540 210 1540 210 1540 280C1540 326.66 1560.3 338.42 1540 373.33C1519.6 408.42 1458.6 392.79 1458.6 420C1458.6 451.13 1515.36 447.63 1540 490C1556.06 517.63 1563.33 548.33 1540 560C1493.33 583.33 1470 560 1400 560C1330 560 1330 560 1260 560C1206.34 560 1205.02 565.82 1152.67 560C1135.02 558.04 1137.65 544.44 1120 544.44C1051.31 544.44 1050 552.22 980 560C980 560 980 560 980 560C910 560 910 560 840 560C770 560 770 560 700 560C630 560 630 560 560 560C490 560 490 560 420 560C356.61 560 354.36 565.56 293.21 560C284.36 559.2 288.76 549.39 280 547.27C212.15 530.88 206.74 518.71 140 522.99C107.47 525.08 113.62 551.5 81.45 560C43.62 570 14.98 585.75 0 560C-25.75 515.75 0 490 0 420C0 350 0 350 0 280C0 210 0 210 0 140C0 70 -35 35 0 0C35 -35 70 0 140 0C210 0 210 0 280 0C350 0 350 0 420 0C490 0 490 0 560 0C630 0 630 0 700 0C727.58 0 755.15 -16.37 755.15 0C755.15 34.19 725.36 49.57 700 101.11" stroke="rgba(255, 255, 255, 1)" stroke-width="2"></path><path d="M420 255.94C406.45 255.94 399.47 267.01 399.47 280C399.47 296.95 404.42 315.81 420 315.81C449.68 315.81 490 295.42 490 280C490 265.48 451.71 255.94 420 255.94" stroke="rgba(255, 255, 255, 1)" stroke-width="2"></path><path d="M980 187.89C935.58 193.38 911.37 235.74 911.37 280C911.37 319.03 937.54 348.77 980 354.47C1041.85 362.77 1053.72 337.31 1120 308C1137.92 300.07 1148.41 293.71 1148.41 280C1148.41 266.81 1136.72 263.35 1120 254.21C1052.51 217.3 1039.9 180.49 980 187.89" stroke="rgba(255, 255, 255, 1)" stroke-width="2"></path><path d="M140 80.5C92.76 92.54 70.2 98.04 56.49 140C37.61 197.79 48.97 218.9 74.83 280C90.72 317.54 108.34 337.27 140 337.27C169.56 337.27 169.04 309.03 197.27 280C239.04 237.06 236.64 234.52 280 193.33C310.32 164.52 344.62 167.19 344.62 140C344.62 112.05 318.97 94.38 280 83.05C216.66 64.63 204.51 64.06 140 80.5" stroke="rgba(255, 255, 255, 1)" stroke-width="2"></path><path d="M526.91 0C552.85 9.92 542.89 27.13 560 53.53C588.26 97.13 581.83 103.74 617.65 140C651.83 174.6 657.48 169.83 700 195.26C768.66 236.33 771.83 232.53 840 273C843.2 274.9 842.75 276.53 842.75 280C842.75 283.08 842.74 284.22 840 286.09C771.37 333.01 770.83 333.19 700 377.58C663.99 400.15 635.04 385.93 626.32 420C611.7 477.14 673.37 517.69 653.33 560C640.21 587.69 606.66 560 560 560C490 560 490 560 420 560C389.63 560 384.15 573.58 359.25 560C314.15 535.4 328.25 500.64 280 483.64C218.62 462.02 204.5 463.97 140 482.76C73.41 502.15 80.14 525.62 17.82 560C10.14 564.24 1.01 567.9 0 560C-7.9 497.9 0 490 0 420C0 350 0 350 0 280C0 210 0 210 0 140C0 70 -35 35 0 0C35 -35 70 0 140 0C210 0 210 0 280 0C350 0 350 0 420 0C473.45 0 482.85 -16.85 526.91 0" stroke="rgba(255, 255, 255, 1)" stroke-width="2"></path><path d="M980 108.89C942.58 57.47 912.41 35.65 912.41 0C912.41 -18.8 946.2 0 980 0C1013.03 0 1019.46 -14.89 1046.07 0C1089.46 24.27 1075.67 74.46 1120 78.33C1182.63 83.8 1206.95 2.37 1260 18.67C1307.29 33.2 1283.32 84.12 1320.67 140C1353.32 188.86 1354.21 228.15 1400 228.15C1463.88 228.15 1502.08 125.96 1540 140C1572.08 151.88 1540 210 1540 280C1540 303.34 1557.09 316.62 1540 326.67C1487.09 357.79 1467.17 337.16 1400 362.35C1342.72 383.83 1334.27 380.64 1291.11 420C1264.27 444.47 1290.26 477.82 1260 490C1204.7 512.26 1185.73 506.08 1120 488.89C1051.9 471.08 992.35 453.08 992.35 420C992.35 387.64 1062.01 397.26 1120 358C1165.4 327.26 1199.13 318.19 1199.13 280C1199.13 243.27 1162.46 240.32 1120 208.16C1070.04 170.32 1065.46 176.28 1014.29 140C995.46 126.65 993.52 127.47 980 108.89" stroke="rgba(255, 255, 255, 1)" stroke-width="2"></path><path d="M1540 140C1524.24 140 1479.55 50.13 1479.55 0C1479.55 -19.87 1530.89 -21.11 1540 0C1561.11 48.89 1554.47 140 1540 140" stroke="rgba(255, 255, 255, 1)" stroke-width="2"></path><path d="M420 201.25C376.29 213.06 352.8 237.49 352.8 280C352.8 335.47 371.04 382.74 420 397.21C474.64 413.36 500.88 381.38 560 341.25C587.22 322.77 592.67 310.31 592.67 280C592.67 251.69 587.08 236.35 560 224C500.75 196.98 479.89 185.06 420 201.25" stroke="rgba(255, 255, 255, 1)" stroke-width="2"></path><path d="M140 36.75C66.42 58.11 41.81 115.98 0 105C-28.19 97.6 -30 22.5 0 0C40 -30 70 0 140 0C210 0 210 0 280 0C350 0 350 0 420 0C441.63 0 456.23 -16.44 463.27 0C486.23 53.56 495.15 88.69 480 140C473.51 161.97 449.03 146.56 420 146.56C414.99 146.56 415.83 143.43 411.92 140C345.83 82.02 355.55 52.42 280 23.73C219.59 0.79 206.42 17.47 140 36.75" stroke="rgba(255, 255, 255, 1)" stroke-width="2"></path><path d="M980 44.07C966.43 44.07 952.64 14.43 952.64 0C952.64 -7.61 966.32 0 980 0C993.37 0 1006.74 -7.53 1006.74 0C1006.74 14.51 993.48 44.07 980 44.07" stroke="rgba(255, 255, 255, 1)" stroke-width="2"></path><path d="M1085.71 140C1085.71 129.62 1101.6 120 1120 120C1153.74 120 1190 129.52 1190 140C1190 150.57 1153.52 162.11 1120 162.11C1101.37 162.11 1085.71 150.67 1085.71 140" stroke="rgba(255, 255, 255, 1)" stroke-width="2"></path><path d="M1540 47.89C1534.61 47.89 1519.32 17.15 1519.32 0C1519.32 -6.8 1536.88 -7.22 1540 0C1547.22 16.72 1544.95 47.89 1540 47.89" stroke="rgba(255, 255, 255, 1)" stroke-width="2"></path><path d="M0 175C3.64 175 -12.69 238.22 14.48 280C57.31 345.87 68.49 352.59 140 390.3C201.25 422.59 280 406.88 280 420C280 433 209.79 430.07 140 442.53C69.79 455.07 51.83 478.34 0 470C-18.17 467.08 0 445 0 420C0 350 0 350 0 280C0 227.5 -3.6 175 0 175" stroke="rgba(255, 255, 255, 1)" stroke-width="2"></path><path d="M250.3 280C250.3 260.23 265.64 248.89 280 248.89C293.56 248.89 306.13 261.01 306.13 280C306.13 346.57 293.92 420 280 420C266.01 420 250.3 345.78 250.3 280" stroke="rgba(255, 255, 255, 1)" stroke-width="2"></path><path d="M651 280C651 259.81 674.21 241.32 700 241.32C731.37 241.32 765.33 259.62 765.33 280C765.33 301.23 731.11 324.55 700 324.55C673.95 324.55 651 301.42 651 280" stroke="rgba(255, 255, 255, 1)" stroke-width="2"></path><path d="M1249.86 280C1249.86 259.78 1250.08 238.82 1260 238.82C1272.65 238.82 1295 261.57 1295 280C1295 294.66 1273.87 305 1260 305C1251.3 305 1249.86 292.87 1249.86 280" stroke="rgba(255, 255, 255, 1)" stroke-width="2"></path><path d="M1095.29 420C1095.29 413.74 1107.47 408 1120 408C1134.31 408 1148.97 413.72 1148.97 420C1148.97 426.39 1134.27 433.33 1120 433.33C1107.43 433.33 1095.29 426.4 1095.29 420" stroke="rgba(255, 255, 255, 1)" stroke-width="2"></path><path d="M433.33 560C433.33 531.23 510.17 457.69 560 457.69C593.65 457.69 600.3 522.56 600.3 560C600.3 573.72 580.15 560 560 560C496.66 560 433.33 582.38 433.33 560" stroke="rgba(255, 255, 255, 1)" stroke-width="2"></path></g><defs><mask id="SvgjsMask1007"><rect width="1440" height="560" fill="#ffffff"></rect></mask></defs></svg>