<svg xmlns="http://www.w3.org/2000/svg" version="1.1" xmlns:xlink="http://www.w3.org/1999/xlink" xmlns:svgjs="http://svgjs.dev/svgjs" width="1440" height="560" preserveAspectRatio="none" viewBox="0 0 1440 560"><g mask="url(&quot;#SvgjsMask1312&quot;)" fill="none"><path d="M-100.54 383.5L-100.54 383.5" stroke="rgba(0, 0, 0, 1)" stroke-width="1.5"></path><path d="M-100.54 383.5L-74.23 530.9" stroke="rgba(0, 0, 0, 1)" stroke-width="1.5"></path><path d="M-100.54 383.5L109.52 534.1" stroke="rgba(0, 0, 0, 1)" stroke-width="1.5"></path><path d="M-100.54 383.5L-83.88 658.01" stroke="rgba(0, 0, 0, 1)" stroke-width="1.5"></path><path d="M-100.54 383.5L211.81 357.02" stroke="rgba(0, 0, 0, 1)" stroke-width="1.5"></path><path d="M-100.54 383.5L80.11 695.68" stroke="rgba(0, 0, 0, 1)" stroke-width="1.5"></path><path d="M-74.23 530.9L-74.23 530.9" stroke="rgba(0, 0, 0, 1)" stroke-width="1.5"></path><path d="M-74.23 530.9L-83.88 658.01" stroke="rgba(0, 0, 0, 1)" stroke-width="1.5"></path><path d="M-74.23 530.9L109.52 534.1" stroke="rgba(0, 0, 0, 1)" stroke-width="1.5"></path><path d="M-83.88 658.01L-83.88 658.01" stroke="rgba(0, 0, 0, 1)" stroke-width="1.5"></path><path d="M-83.88 658.01L80.11 695.68" stroke="rgba(0, 0, 0, 1)" stroke-width="1.5"></path><path d="M-83.88 658.01L109.52 534.1" stroke="rgba(0, 0, 0, 1)" stroke-width="1.5"></path><path d="M-83.88 658.01L189.12 710.15" stroke="rgba(0, 0, 0, 1)" stroke-width="1.5"></path><path d="M-83.88 658.01L250.98 557.82" stroke="rgba(0, 0, 0, 1)" stroke-width="1.5"></path><path d="M109.52 534.1L109.52 534.1" stroke="rgba(0, 0, 0, 1)" stroke-width="1.5"></path><path d="M109.52 534.1L250.98 557.82" stroke="rgba(0, 0, 0, 1)" stroke-width="1.5"></path><path d="M109.52 534.1L80.11 695.68" stroke="rgba(0, 0, 0, 1)" stroke-width="1.5"></path><path d="M80.11 695.68L80.11 695.68" stroke="rgba(0, 0, 0, 1)" stroke-width="1.5"></path><path d="M80.11 695.68L189.12 710.15" stroke="rgba(0, 0, 0, 1)" stroke-width="1.5"></path><path d="M211.81 357.02L211.81 357.02" stroke="rgba(0, 0, 0, 1)" stroke-width="1.5"></path><path d="M211.81 357.02L380.28 383.07" stroke="rgba(0, 0, 0, 1)" stroke-width="1.5"></path><path d="M211.81 357.02L109.52 534.1" stroke="rgba(0, 0, 0, 1)" stroke-width="1.5"></path><path d="M211.81 357.02L250.98 557.82" stroke="rgba(0, 0, 0, 1)" stroke-width="1.5"></path><path d="M211.81 357.02L392.54 532.98" stroke="rgba(0, 0, 0, 1)" stroke-width="1.5"></path><path d="M211.81 357.02L-74.23 530.9" stroke="rgba(0, 0, 0, 1)" stroke-width="1.5"></path><path d="M250.98 557.82L250.98 557.82" stroke="rgba(0, 0, 0, 1)" stroke-width="1.5"></path><path d="M250.98 557.82L392.54 532.98" stroke="rgba(0, 0, 0, 1)" stroke-width="1.5"></path><path d="M250.98 557.82L375.08 662.3" stroke="rgba(0, 0, 0, 1)" stroke-width="1.5"></path><path d="M189.12 710.15L189.12 710.15" stroke="rgba(0, 0, 0, 1)" stroke-width="1.5"></path><path d="M189.12 710.15L250.98 557.82" stroke="rgba(0, 0, 0, 1)" stroke-width="1.5"></path><path d="M189.12 710.15L375.08 662.3" stroke="rgba(0, 0, 0, 1)" stroke-width="1.5"></path><path d="M189.12 710.15L109.52 534.1" stroke="rgba(0, 0, 0, 1)" stroke-width="1.5"></path><path d="M380.28 383.07L380.28 383.07" stroke="rgba(0, 0, 0, 1)" stroke-width="1.5"></path><path d="M380.28 383.07L392.54 532.98" stroke="rgba(0, 0, 0, 1)" stroke-width="1.5"></path><path d="M380.28 383.07L543.2 409.65" stroke="rgba(0, 0, 0, 1)" stroke-width="1.5"></path><path d="M380.28 383.07L250.98 557.82" stroke="rgba(0, 0, 0, 1)" stroke-width="1.5"></path><path d="M392.54 532.98L392.54 532.98" stroke="rgba(0, 0, 0, 1)" stroke-width="1.5"></path><path d="M392.54 532.98L375.08 662.3" stroke="rgba(0, 0, 0, 1)" stroke-width="1.5"></path><path d="M392.54 532.98L543.2 409.65" stroke="rgba(0, 0, 0, 1)" stroke-width="1.5"></path><path d="M392.54 532.98L537.72 689.77" stroke="rgba(0, 0, 0, 1)" stroke-width="1.5"></path><path d="M375.08 662.3L375.08 662.3" stroke="rgba(0, 0, 0, 1)" stroke-width="1.5"></path><path d="M375.08 662.3L537.72 689.77" stroke="rgba(0, 0, 0, 1)" stroke-width="1.5"></path><path d="M375.08 662.3L380.28 383.07" stroke="rgba(0, 0, 0, 1)" stroke-width="1.5"></path><path d="M375.08 662.3L109.52 534.1" stroke="rgba(0, 0, 0, 1)" stroke-width="1.5"></path><path d="M543.2 409.65L543.2 409.65" stroke="rgba(0, 0, 0, 1)" stroke-width="1.5"></path><path d="M543.2 409.65L656.89 359.33" stroke="rgba(0, 0, 0, 1)" stroke-width="1.5"></path><path d="M543.2 409.65L657.44 261.71" stroke="rgba(0, 0, 0, 1)" stroke-width="1.5"></path><path d="M537.72 689.77L537.72 689.77" stroke="rgba(0, 0, 0, 1)" stroke-width="1.5"></path><path d="M537.72 689.77L705.55 686.64" stroke="rgba(0, 0, 0, 1)" stroke-width="1.5"></path><path d="M657.44 261.71L657.44 261.71" stroke="rgba(0, 0, 0, 1)" stroke-width="1.5"></path><path d="M657.44 261.71L656.89 359.33" stroke="rgba(0, 0, 0, 1)" stroke-width="1.5"></path><path d="M657.44 261.71L818 203.6" stroke="rgba(0, 0, 0, 1)" stroke-width="1.5"></path><path d="M656.89 359.33L656.89 359.33" stroke="rgba(0, 0, 0, 1)" stroke-width="1.5"></path><path d="M656.89 359.33L843.79 374.95" stroke="rgba(0, 0, 0, 1)" stroke-width="1.5"></path><path d="M710.45 548.51L710.45 548.51" stroke="rgba(0, 0, 0, 1)" stroke-width="1.5"></path><path d="M710.45 548.51L846.25 534.08" stroke="rgba(0, 0, 0, 1)" stroke-width="1.5"></path><path d="M710.45 548.51L705.55 686.64" stroke="rgba(0, 0, 0, 1)" stroke-width="1.5"></path><path d="M710.45 548.51L809.24 706.76" stroke="rgba(0, 0, 0, 1)" stroke-width="1.5"></path><path d="M710.45 548.51L656.89 359.33" stroke="rgba(0, 0, 0, 1)" stroke-width="1.5"></path><path d="M710.45 548.51L543.2 409.65" stroke="rgba(0, 0, 0, 1)" stroke-width="1.5"></path><path d="M710.45 548.51L843.79 374.95" stroke="rgba(0, 0, 0, 1)" stroke-width="1.5"></path><path d="M705.55 686.64L705.55 686.64" stroke="rgba(0, 0, 0, 1)" stroke-width="1.5"></path><path d="M705.55 686.64L809.24 706.76" stroke="rgba(0, 0, 0, 1)" stroke-width="1.5"></path><path d="M844.21 84.1L844.21 84.1" stroke="rgba(0, 0, 0, 1)" stroke-width="1.5"></path><path d="M844.21 84.1L818 203.6" stroke="rgba(0, 0, 0, 1)" stroke-width="1.5"></path><path d="M844.21 84.1L983.17 74.11" stroke="rgba(0, 0, 0, 1)" stroke-width="1.5"></path><path d="M818 203.6L818 203.6" stroke="rgba(0, 0, 0, 1)" stroke-width="1.5"></path><path d="M843.79 374.95L843.79 374.95" stroke="rgba(0, 0, 0, 1)" stroke-width="1.5"></path><path d="M843.79 374.95L955.82 353.91" stroke="rgba(0, 0, 0, 1)" stroke-width="1.5"></path><path d="M843.79 374.95L846.25 534.08" stroke="rgba(0, 0, 0, 1)" stroke-width="1.5"></path><path d="M843.79 374.95L818 203.6" stroke="rgba(0, 0, 0, 1)" stroke-width="1.5"></path><path d="M846.25 534.08L846.25 534.08" stroke="rgba(0, 0, 0, 1)" stroke-width="1.5"></path><path d="M846.25 534.08L979.75 506.86" stroke="rgba(0, 0, 0, 1)" stroke-width="1.5"></path><path d="M809.24 706.76L809.24 706.76" stroke="rgba(0, 0, 0, 1)" stroke-width="1.5"></path><path d="M809.24 706.76L940.02 643.52" stroke="rgba(0, 0, 0, 1)" stroke-width="1.5"></path><path d="M809.24 706.76L846.25 534.08" stroke="rgba(0, 0, 0, 1)" stroke-width="1.5"></path><path d="M809.24 706.76L979.75 506.86" stroke="rgba(0, 0, 0, 1)" stroke-width="1.5"></path><path d="M809.24 706.76L537.72 689.77" stroke="rgba(0, 0, 0, 1)" stroke-width="1.5"></path><path d="M983.17 74.11L983.17 74.11" stroke="rgba(0, 0, 0, 1)" stroke-width="1.5"></path><path d="M983.17 74.11L1087.67 89.08" stroke="rgba(0, 0, 0, 1)" stroke-width="1.5"></path><path d="M983.17 74.11L994.95 224.49" stroke="rgba(0, 0, 0, 1)" stroke-width="1.5"></path><path d="M983.17 74.11L1131.38 217.9" stroke="rgba(0, 0, 0, 1)" stroke-width="1.5"></path><path d="M983.17 74.11L818 203.6" stroke="rgba(0, 0, 0, 1)" stroke-width="1.5"></path><path d="M994.95 224.49L994.95 224.49" stroke="rgba(0, 0, 0, 1)" stroke-width="1.5"></path><path d="M994.95 224.49L955.82 353.91" stroke="rgba(0, 0, 0, 1)" stroke-width="1.5"></path><path d="M955.82 353.91L955.82 353.91" stroke="rgba(0, 0, 0, 1)" stroke-width="1.5"></path><path d="M955.82 353.91L1100.98 374.74" stroke="rgba(0, 0, 0, 1)" stroke-width="1.5"></path><path d="M955.82 353.91L979.75 506.86" stroke="rgba(0, 0, 0, 1)" stroke-width="1.5"></path><path d="M955.82 353.91L818 203.6" stroke="rgba(0, 0, 0, 1)" stroke-width="1.5"></path><path d="M955.82 353.91L846.25 534.08" stroke="rgba(0, 0, 0, 1)" stroke-width="1.5"></path><path d="M979.75 506.86L979.75 506.86" stroke="rgba(0, 0, 0, 1)" stroke-width="1.5"></path><path d="M979.75 506.86L1116.04 520.02" stroke="rgba(0, 0, 0, 1)" stroke-width="1.5"></path><path d="M979.75 506.86L940.02 643.52" stroke="rgba(0, 0, 0, 1)" stroke-width="1.5"></path><path d="M940.02 643.52L940.02 643.52" stroke="rgba(0, 0, 0, 1)" stroke-width="1.5"></path><path d="M940.02 643.52L846.25 534.08" stroke="rgba(0, 0, 0, 1)" stroke-width="1.5"></path><path d="M940.02 643.52L1116.04 520.02" stroke="rgba(0, 0, 0, 1)" stroke-width="1.5"></path><path d="M1135.9 -105L1135.9 -105" stroke="rgba(0, 0, 0, 1)" stroke-width="1.5"></path><path d="M1135.9 -105L1264.6 -74.93" stroke="rgba(0, 0, 0, 1)" stroke-width="1.5"></path><path d="M1135.9 -105L1087.67 89.08" stroke="rgba(0, 0, 0, 1)" stroke-width="1.5"></path><path d="M1087.67 89.08L1087.67 89.08" stroke="rgba(0, 0, 0, 1)" stroke-width="1.5"></path><path d="M1087.67 89.08L1131.38 217.9" stroke="rgba(0, 0, 0, 1)" stroke-width="1.5"></path><path d="M1087.67 89.08L994.95 224.49" stroke="rgba(0, 0, 0, 1)" stroke-width="1.5"></path><path d="M1087.67 89.08L1275.9 65.36" stroke="rgba(0, 0, 0, 1)" stroke-width="1.5"></path><path d="M1131.38 217.9L1131.38 217.9" stroke="rgba(0, 0, 0, 1)" stroke-width="1.5"></path><path d="M1131.38 217.9L994.95 224.49" stroke="rgba(0, 0, 0, 1)" stroke-width="1.5"></path><path d="M1131.38 217.9L1100.98 374.74" stroke="rgba(0, 0, 0, 1)" stroke-width="1.5"></path><path d="M1100.98 374.74L1100.98 374.74" stroke="rgba(0, 0, 0, 1)" stroke-width="1.5"></path><path d="M1100.98 374.74L1116.04 520.02" stroke="rgba(0, 0, 0, 1)" stroke-width="1.5"></path><path d="M1116.04 520.02L1116.04 520.02" stroke="rgba(0, 0, 0, 1)" stroke-width="1.5"></path><path d="M1116.04 520.02L1276.63 495.6" stroke="rgba(0, 0, 0, 1)" stroke-width="1.5"></path><path d="M1116.04 520.02L1152.23 704.44" stroke="rgba(0, 0, 0, 1)" stroke-width="1.5"></path><path d="M1152.23 704.44L1152.23 704.44" stroke="rgba(0, 0, 0, 1)" stroke-width="1.5"></path><path d="M1152.23 704.44L1260.96 651.56" stroke="rgba(0, 0, 0, 1)" stroke-width="1.5"></path><path d="M1152.23 704.44L940.02 643.52" stroke="rgba(0, 0, 0, 1)" stroke-width="1.5"></path><path d="M1152.23 704.44L1276.63 495.6" stroke="rgba(0, 0, 0, 1)" stroke-width="1.5"></path><path d="M1152.23 704.44L979.75 506.86" stroke="rgba(0, 0, 0, 1)" stroke-width="1.5"></path><path d="M1264.6 -74.93L1264.6 -74.93" stroke="rgba(0, 0, 0, 1)" stroke-width="1.5"></path><path d="M1264.6 -74.93L1275.9 65.36" stroke="rgba(0, 0, 0, 1)" stroke-width="1.5"></path><path d="M1264.6 -74.93L1428.7 -64.42" stroke="rgba(0, 0, 0, 1)" stroke-width="1.5"></path><path d="M1264.6 -74.93L1087.67 89.08" stroke="rgba(0, 0, 0, 1)" stroke-width="1.5"></path><path d="M1264.6 -74.93L1569.51 -68.29" stroke="rgba(0, 0, 0, 1)" stroke-width="1.5"></path><path d="M1264.6 -74.93L983.17 74.11" stroke="rgba(0, 0, 0, 1)" stroke-width="1.5"></path><path d="M1275.9 65.36L1275.9 65.36" stroke="rgba(0, 0, 0, 1)" stroke-width="1.5"></path><path d="M1275.9 65.36L1428.7 -64.42" stroke="rgba(0, 0, 0, 1)" stroke-width="1.5"></path><path d="M1275.9 65.36L1131.38 217.9" stroke="rgba(0, 0, 0, 1)" stroke-width="1.5"></path><path d="M1275.9 65.36L1135.9 -105" stroke="rgba(0, 0, 0, 1)" stroke-width="1.5"></path><path d="M1275.9 65.36L1448.87 243.88" stroke="rgba(0, 0, 0, 1)" stroke-width="1.5"></path><path d="M1311.36 404.81L1311.36 404.81" stroke="rgba(0, 0, 0, 1)" stroke-width="1.5"></path><path d="M1311.36 404.81L1276.63 495.6" stroke="rgba(0, 0, 0, 1)" stroke-width="1.5"></path><path d="M1311.36 404.81L1457.62 353.13" stroke="rgba(0, 0, 0, 1)" stroke-width="1.5"></path><path d="M1276.63 495.6L1276.63 495.6" stroke="rgba(0, 0, 0, 1)" stroke-width="1.5"></path><path d="M1276.63 495.6L1260.96 651.56" stroke="rgba(0, 0, 0, 1)" stroke-width="1.5"></path><path d="M1276.63 495.6L1456.43 545.98" stroke="rgba(0, 0, 0, 1)" stroke-width="1.5"></path><path d="M1276.63 495.6L1100.98 374.74" stroke="rgba(0, 0, 0, 1)" stroke-width="1.5"></path><path d="M1260.96 651.56L1260.96 651.56" stroke="rgba(0, 0, 0, 1)" stroke-width="1.5"></path><path d="M1260.96 651.56L1439.12 650.44" stroke="rgba(0, 0, 0, 1)" stroke-width="1.5"></path><path d="M1260.96 651.56L1116.04 520.02" stroke="rgba(0, 0, 0, 1)" stroke-width="1.5"></path><path d="M1260.96 651.56L1456.43 545.98" stroke="rgba(0, 0, 0, 1)" stroke-width="1.5"></path><path d="M1260.96 651.56L1311.36 404.81" stroke="rgba(0, 0, 0, 1)" stroke-width="1.5"></path><path d="M1428.7 -64.42L1428.7 -64.42" stroke="rgba(0, 0, 0, 1)" stroke-width="1.5"></path><path d="M1428.7 -64.42L1569.51 -68.29" stroke="rgba(0, 0, 0, 1)" stroke-width="1.5"></path><path d="M1448.87 243.88L1448.87 243.88" stroke="rgba(0, 0, 0, 1)" stroke-width="1.5"></path><path d="M1448.87 243.88L1457.62 353.13" stroke="rgba(0, 0, 0, 1)" stroke-width="1.5"></path><path d="M1448.87 243.88L1557.14 203.14" stroke="rgba(0, 0, 0, 1)" stroke-width="1.5"></path><path d="M1448.87 243.88L1567.86 401.93" stroke="rgba(0, 0, 0, 1)" stroke-width="1.5"></path><path d="M1457.62 353.13L1457.62 353.13" stroke="rgba(0, 0, 0, 1)" stroke-width="1.5"></path><path d="M1456.43 545.98L1456.43 545.98" stroke="rgba(0, 0, 0, 1)" stroke-width="1.5"></path><path d="M1456.43 545.98L1439.12 650.44" stroke="rgba(0, 0, 0, 1)" stroke-width="1.5"></path><path d="M1456.43 545.98L1610.6 539.54" stroke="rgba(0, 0, 0, 1)" stroke-width="1.5"></path><path d="M1456.43 545.98L1539.64 694.42" stroke="rgba(0, 0, 0, 1)" stroke-width="1.5"></path><path d="M1439.12 650.44L1439.12 650.44" stroke="rgba(0, 0, 0, 1)" stroke-width="1.5"></path><path d="M1439.12 650.44L1539.64 694.42" stroke="rgba(0, 0, 0, 1)" stroke-width="1.5"></path><path d="M1569.51 -68.29L1569.51 -68.29" stroke="rgba(0, 0, 0, 1)" stroke-width="1.5"></path><path d="M1569.51 -68.29L1583.4 65.85" stroke="rgba(0, 0, 0, 1)" stroke-width="1.5"></path><path d="M1569.51 -68.29L1557.14 203.14" stroke="rgba(0, 0, 0, 1)" stroke-width="1.5"></path><path d="M1569.51 -68.29L1275.9 65.36" stroke="rgba(0, 0, 0, 1)" stroke-width="1.5"></path><path d="M1569.51 -68.29L1448.87 243.88" stroke="rgba(0, 0, 0, 1)" stroke-width="1.5"></path><path d="M1583.4 65.85L1583.4 65.85" stroke="rgba(0, 0, 0, 1)" stroke-width="1.5"></path><path d="M1583.4 65.85L1557.14 203.14" stroke="rgba(0, 0, 0, 1)" stroke-width="1.5"></path><path d="M1583.4 65.85L1428.7 -64.42" stroke="rgba(0, 0, 0, 1)" stroke-width="1.5"></path><path d="M1583.4 65.85L1448.87 243.88" stroke="rgba(0, 0, 0, 1)" stroke-width="1.5"></path><path d="M1557.14 203.14L1557.14 203.14" stroke="rgba(0, 0, 0, 1)" stroke-width="1.5"></path><path d="M1557.14 203.14L1457.62 353.13" stroke="rgba(0, 0, 0, 1)" stroke-width="1.5"></path><path d="M1557.14 203.14L1567.86 401.93" stroke="rgba(0, 0, 0, 1)" stroke-width="1.5"></path><path d="M1567.86 401.93L1567.86 401.93" stroke="rgba(0, 0, 0, 1)" stroke-width="1.5"></path><path d="M1567.86 401.93L1457.62 353.13" stroke="rgba(0, 0, 0, 1)" stroke-width="1.5"></path><path d="M1610.6 539.54L1610.6 539.54" stroke="rgba(0, 0, 0, 1)" stroke-width="1.5"></path><path d="M1610.6 539.54L1567.86 401.93" stroke="rgba(0, 0, 0, 1)" stroke-width="1.5"></path><path d="M1539.64 694.42L1539.64 694.42" stroke="rgba(0, 0, 0, 1)" stroke-width="1.5"></path><circle r="5" cx="-100.54" cy="383.5" fill="rgba(0, 0, 0, 1)"></circle><circle r="5" cx="-74.23" cy="530.9" fill="rgba(0, 0, 0, 1)"></circle><circle r="5" cx="-83.88" cy="658.01" fill="rgba(0, 0, 0, 1)"></circle><circle r="5" cx="109.52" cy="534.1" fill="rgba(0, 0, 0, 1)"></circle><circle r="5" cx="80.11" cy="695.68" fill="rgba(0, 0, 0, 1)"></circle><circle r="5" cx="211.81" cy="357.02" fill="rgba(0, 0, 0, 1)"></circle><circle r="5" cx="250.98" cy="557.82" fill="rgba(0, 0, 0, 1)"></circle><circle r="5" cx="189.12" cy="710.15" fill="rgba(0, 0, 0, 1)"></circle><circle r="5" cx="380.28" cy="383.07" fill="rgba(0, 0, 0, 1)"></circle><circle r="5" cx="392.54" cy="532.98" fill="rgba(0, 0, 0, 1)"></circle><circle r="5" cx="375.08" cy="662.3" fill="rgba(0, 0, 0, 1)"></circle><circle r="5" cx="543.2" cy="409.65" fill="rgba(0, 0, 0, 1)"></circle><circle r="5" cx="537.72" cy="689.77" fill="rgba(0, 0, 0, 1)"></circle><circle r="5" cx="657.44" cy="261.71" fill="rgba(0, 0, 0, 1)"></circle><circle r="5" cx="656.89" cy="359.33" fill="rgba(0, 0, 0, 1)"></circle><circle r="5" cx="710.45" cy="548.51" fill="rgba(0, 0, 0, 1)"></circle><circle r="5" cx="705.55" cy="686.64" fill="rgba(0, 0, 0, 1)"></circle><circle r="5" cx="844.21" cy="84.1" fill="rgba(0, 0, 0, 1)"></circle><circle r="5" cx="818" cy="203.6" fill="rgba(0, 0, 0, 1)"></circle><circle r="5" cx="843.79" cy="374.95" fill="rgba(0, 0, 0, 1)"></circle><circle r="5" cx="846.25" cy="534.08" fill="rgba(0, 0, 0, 1)"></circle><circle r="5" cx="809.24" cy="706.76" fill="rgba(0, 0, 0, 1)"></circle><circle r="5" cx="983.17" cy="74.11" fill="rgba(0, 0, 0, 1)"></circle><circle r="5" cx="994.95" cy="224.49" fill="rgba(0, 0, 0, 1)"></circle><circle r="5" cx="955.82" cy="353.91" fill="rgba(0, 0, 0, 1)"></circle><circle r="5" cx="979.75" cy="506.86" fill="rgba(0, 0, 0, 1)"></circle><circle r="5" cx="940.02" cy="643.52" fill="rgba(0, 0, 0, 1)"></circle><circle r="5" cx="1135.9" cy="-105" fill="rgba(0, 0, 0, 1)"></circle><circle r="5" cx="1087.67" cy="89.08" fill="rgba(0, 0, 0, 1)"></circle><circle r="5" cx="1131.38" cy="217.9" fill="rgba(0, 0, 0, 1)"></circle><circle r="5" cx="1100.98" cy="374.74" fill="rgba(0, 0, 0, 1)"></circle><circle r="5" cx="1116.04" cy="520.02" fill="rgba(0, 0, 0, 1)"></circle><circle r="5" cx="1152.23" cy="704.44" fill="rgba(0, 0, 0, 1)"></circle><circle r="5" cx="1264.6" cy="-74.93" fill="rgba(0, 0, 0, 1)"></circle><circle r="5" cx="1275.9" cy="65.36" fill="rgba(0, 0, 0, 1)"></circle><circle r="5" cx="1311.36" cy="404.81" fill="rgba(0, 0, 0, 1)"></circle><circle r="5" cx="1276.63" cy="495.6" fill="rgba(0, 0, 0, 1)"></circle><circle r="5" cx="1260.96" cy="651.56" fill="rgba(0, 0, 0, 1)"></circle><circle r="5" cx="1428.7" cy="-64.42" fill="rgba(0, 0, 0, 1)"></circle><circle r="5" cx="1448.87" cy="243.88" fill="rgba(0, 0, 0, 1)"></circle><circle r="5" cx="1457.62" cy="353.13" fill="rgba(0, 0, 0, 1)"></circle><circle r="5" cx="1456.43" cy="545.98" fill="rgba(0, 0, 0, 1)"></circle><circle r="5" cx="1439.12" cy="650.44" fill="rgba(0, 0, 0, 1)"></circle><circle r="5" cx="1569.51" cy="-68.29" fill="rgba(0, 0, 0, 1)"></circle><circle r="5" cx="1583.4" cy="65.85" fill="rgba(0, 0, 0, 1)"></circle><circle r="5" cx="1557.14" cy="203.14" fill="rgba(0, 0, 0, 1)"></circle><circle r="5" cx="1567.86" cy="401.93" fill="rgba(0, 0, 0, 1)"></circle><circle r="5" cx="1610.6" cy="539.54" fill="rgba(0, 0, 0, 1)"></circle><circle r="5" cx="1539.64" cy="694.42" fill="rgba(0, 0, 0, 1)"></circle><path d="M-85.2 698.27L-85.2 698.27" stroke="hsl(0, 0%, 0%)" stroke-width="1.5"></path><path d="M-85.2 698.27L-77.76 546.5" stroke="hsl(0, 0%, 0%)" stroke-width="1.5"></path><path d="M-85.2 698.27L88.19 646.46" stroke="hsl(0, 0%, 0%)" stroke-width="1.5"></path><path d="M-85.2 698.27L78.3 551.51" stroke="hsl(0, 0%, 0%)" stroke-width="1.5"></path><path d="M-85.2 698.27L221.01 700.72" stroke="hsl(0, 0%, 0%)" stroke-width="1.5"></path><path d="M-85.2 698.27L243.75 503.32" stroke="hsl(0, 0%, 0%)" stroke-width="1.5"></path><path d="M-85.2 698.27L348.12 701.78" stroke="hsl(0, 0%, 0%)" stroke-width="1.5"></path><path d="M348.12 701.78L348.12 701.78" stroke="hsl(0, 0%, 0%)" stroke-width="1.5"></path><path d="M348.12 701.78L221.01 700.72" stroke="hsl(0, 0%, 0%)" stroke-width="1.5"></path><path d="M348.12 701.78L491.27 658.2" stroke="hsl(0, 0%, 0%)" stroke-width="1.5"></path><path d="M348.12 701.78L345.61 491.94" stroke="hsl(0, 0%, 0%)" stroke-width="1.5"></path><path d="M348.12 701.78L243.75 503.32" stroke="hsl(0, 0%, 0%)" stroke-width="1.5"></path><path d="M491.27 658.2L491.27 658.2" stroke="hsl(0, 0%, 0%)" stroke-width="1.5"></path><path d="M491.27 658.2L560.08 507.99" stroke="hsl(0, 0%, 0%)" stroke-width="1.5"></path><path d="M491.27 658.2L679.01 676.53" stroke="hsl(0, 0%, 0%)" stroke-width="1.5"></path><path d="M491.27 658.2L663.96 533.99" stroke="hsl(0, 0%, 0%)" stroke-width="1.5"></path><path d="M491.27 658.2L345.61 491.94" stroke="hsl(0, 0%, 0%)" stroke-width="1.5"></path><path d="M491.27 658.2L488.64 409.01" stroke="hsl(0, 0%, 0%)" stroke-width="1.5"></path><path d="M792.6 691.55L792.6 691.55" stroke="hsl(0, 0%, 0%)" stroke-width="1.5"></path><path d="M792.6 691.55L679.01 676.53" stroke="hsl(0, 0%, 0%)" stroke-width="1.5"></path><path d="M792.6 691.55L859.57 505.11" stroke="hsl(0, 0%, 0%)" stroke-width="1.5"></path><path d="M792.6 691.55L993.16 676.6" stroke="hsl(0, 0%, 0%)" stroke-width="1.5"></path><path d="M792.6 691.55L940.11 553.71" stroke="hsl(0, 0%, 0%)" stroke-width="1.5"></path><path d="M792.6 691.55L663.96 533.99" stroke="hsl(0, 0%, 0%)" stroke-width="1.5"></path><path d="M989.27 387.74L989.27 387.74" stroke="hsl(0, 0%, 0%)" stroke-width="1.5"></path><path d="M989.27 387.74L1136.9 356.12" stroke="hsl(0, 0%, 0%)" stroke-width="1.5"></path><path d="M989.27 387.74L844.48 339.47" stroke="hsl(0, 0%, 0%)" stroke-width="1.5"></path><path d="M989.27 387.74L940.11 553.71" stroke="hsl(0, 0%, 0%)" stroke-width="1.5"></path><path d="M989.27 387.74L859.57 505.11" stroke="hsl(0, 0%, 0%)" stroke-width="1.5"></path><path d="M989.27 387.74L1136.5 502.52" stroke="hsl(0, 0%, 0%)" stroke-width="1.5"></path><path d="M989.27 387.74L1126.97 223.76" stroke="hsl(0, 0%, 0%)" stroke-width="1.5"></path><path d="M1146.34 72.17L1146.34 72.17" stroke="hsl(0, 0%, 0%)" stroke-width="1.5"></path><path d="M1146.34 72.17L1254.64 48.91" stroke="hsl(0, 0%, 0%)" stroke-width="1.5"></path><path d="M1146.34 72.17L1126.97 223.76" stroke="hsl(0, 0%, 0%)" stroke-width="1.5"></path><path d="M1126.97 223.76L1126.97 223.76" stroke="hsl(0, 0%, 0%)" stroke-width="1.5"></path><path d="M1126.97 223.76L1136.9 356.12" stroke="hsl(0, 0%, 0%)" stroke-width="1.5"></path><path d="M1250.23 388.22L1250.23 388.22" stroke="hsl(0, 0%, 0%)" stroke-width="1.5"></path><path d="M1250.23 388.22L1136.9 356.12" stroke="hsl(0, 0%, 0%)" stroke-width="1.5"></path><path d="M1250.23 388.22L1282.49 250.6" stroke="hsl(0, 0%, 0%)" stroke-width="1.5"></path><path d="M1311.71 521.82L1311.71 521.82" stroke="hsl(0, 0%, 0%)" stroke-width="1.5"></path><path d="M1311.71 521.82L1430.74 491.46" stroke="hsl(0, 0%, 0%)" stroke-width="1.5"></path><path d="M1311.71 521.82L1250.23 388.22" stroke="hsl(0, 0%, 0%)" stroke-width="1.5"></path><path d="M1311.71 521.82L1136.5 502.52" stroke="hsl(0, 0%, 0%)" stroke-width="1.5"></path><path d="M1311.71 521.82L1405.71 683.27" stroke="hsl(0, 0%, 0%)" stroke-width="1.5"></path><path d="M1449.69 -86.61L1449.69 -86.61" stroke="hsl(0, 0%, 0%)" stroke-width="1.5"></path><path d="M1449.69 -86.61L1603.28 -111.24" stroke="hsl(0, 0%, 0%)" stroke-width="1.5"></path><path d="M1449.69 -86.61L1429.84 69.12" stroke="hsl(0, 0%, 0%)" stroke-width="1.5"></path><path d="M1392.65 234.2L1392.65 234.2" stroke="hsl(0, 0%, 0%)" stroke-width="1.5"></path><path d="M1392.65 234.2L1282.49 250.6" stroke="hsl(0, 0%, 0%)" stroke-width="1.5"></path><path d="M1392.65 234.2L1409.54 358.54" stroke="hsl(0, 0%, 0%)" stroke-width="1.5"></path><path d="M1392.65 234.2L1429.84 69.12" stroke="hsl(0, 0%, 0%)" stroke-width="1.5"></path><path d="M1392.65 234.2L1250.23 388.22" stroke="hsl(0, 0%, 0%)" stroke-width="1.5"></path><path d="M1392.65 234.2L1604.84 228.35" stroke="hsl(0, 0%, 0%)" stroke-width="1.5"></path><path d="M1392.65 234.2L1254.64 48.91" stroke="hsl(0, 0%, 0%)" stroke-width="1.5"></path><path d="M1430.74 491.46L1430.74 491.46" stroke="hsl(0, 0%, 0%)" stroke-width="1.5"></path><path d="M1430.74 491.46L1409.54 358.54" stroke="hsl(0, 0%, 0%)" stroke-width="1.5"></path><path d="M1430.74 491.46L1586.6 556.05" stroke="hsl(0, 0%, 0%)" stroke-width="1.5"></path><path d="M1430.74 491.46L1573.58 380.04" stroke="hsl(0, 0%, 0%)" stroke-width="1.5"></path><path d="M1430.74 491.46L1405.71 683.27" stroke="hsl(0, 0%, 0%)" stroke-width="1.5"></path><path d="M1430.74 491.46L1250.23 388.22" stroke="hsl(0, 0%, 0%)" stroke-width="1.5"></path><path d="M1543.69 47.59L1543.69 47.59" stroke="hsl(0, 0%, 0%)" stroke-width="1.5"></path><path d="M1543.69 47.59L1429.84 69.12" stroke="hsl(0, 0%, 0%)" stroke-width="1.5"></path><path d="M1543.69 47.59L1449.69 -86.61" stroke="hsl(0, 0%, 0%)" stroke-width="1.5"></path><path d="M1576.13 710.68L1576.13 710.68" stroke="hsl(0, 0%, 0%)" stroke-width="1.5"></path><path d="M1576.13 710.68L1586.6 556.05" stroke="hsl(0, 0%, 0%)" stroke-width="1.5"></path><path d="M1576.13 710.68L1405.71 683.27" stroke="hsl(0, 0%, 0%)" stroke-width="1.5"></path><path d="M1576.13 710.68L1430.74 491.46" stroke="hsl(0, 0%, 0%)" stroke-width="1.5"></path><path d="M1576.13 710.68L1311.71 521.82" stroke="hsl(0, 0%, 0%)" stroke-width="1.5"></path><path d="M-77.76 546.5L-77.76 546.5" stroke="hsl(0, 0%, 0%)" stroke-width="1.5"></path><path d="M-77.76 546.5L78.3 551.51" stroke="hsl(0, 0%, 0%)" stroke-width="1.5"></path><path d="M-77.76 546.5L88.19 646.46" stroke="hsl(0, 0%, 0%)" stroke-width="1.5"></path><path d="M-77.76 546.5L243.75 503.32" stroke="hsl(0, 0%, 0%)" stroke-width="1.5"></path><path d="M-77.76 546.5L221.01 700.72" stroke="hsl(0, 0%, 0%)" stroke-width="1.5"></path><path d="M-77.76 546.5L345.61 491.94" stroke="hsl(0, 0%, 0%)" stroke-width="1.5"></path><path d="M78.3 551.51L78.3 551.51" stroke="hsl(0, 0%, 0%)" stroke-width="1.5"></path><path d="M78.3 551.51L88.19 646.46" stroke="hsl(0, 0%, 0%)" stroke-width="1.5"></path><path d="M78.3 551.51L243.75 503.32" stroke="hsl(0, 0%, 0%)" stroke-width="1.5"></path><path d="M78.3 551.51L221.01 700.72" stroke="hsl(0, 0%, 0%)" stroke-width="1.5"></path><path d="M88.19 646.46L88.19 646.46" stroke="hsl(0, 0%, 0%)" stroke-width="1.5"></path><path d="M88.19 646.46L221.01 700.72" stroke="hsl(0, 0%, 0%)" stroke-width="1.5"></path><path d="M243.75 503.32L243.75 503.32" stroke="hsl(0, 0%, 0%)" stroke-width="1.5"></path><path d="M243.75 503.32L345.61 491.94" stroke="hsl(0, 0%, 0%)" stroke-width="1.5"></path><path d="M221.01 700.72L221.01 700.72" stroke="hsl(0, 0%, 0%)" stroke-width="1.5"></path><path d="M345.61 491.94L345.61 491.94" stroke="hsl(0, 0%, 0%)" stroke-width="1.5"></path><path d="M345.61 491.94L488.64 409.01" stroke="hsl(0, 0%, 0%)" stroke-width="1.5"></path><path d="M345.61 491.94L560.08 507.99" stroke="hsl(0, 0%, 0%)" stroke-width="1.5"></path><path d="M488.64 409.01L488.64 409.01" stroke="hsl(0, 0%, 0%)" stroke-width="1.5"></path><path d="M488.64 409.01L560.08 507.99" stroke="hsl(0, 0%, 0%)" stroke-width="1.5"></path><path d="M488.64 409.01L663.96 533.99" stroke="hsl(0, 0%, 0%)" stroke-width="1.5"></path><path d="M488.64 409.01L707.67 357.07" stroke="hsl(0, 0%, 0%)" stroke-width="1.5"></path><path d="M560.08 507.99L560.08 507.99" stroke="hsl(0, 0%, 0%)" stroke-width="1.5"></path><path d="M560.08 507.99L663.96 533.99" stroke="hsl(0, 0%, 0%)" stroke-width="1.5"></path><path d="M560.08 507.99L679.01 676.53" stroke="hsl(0, 0%, 0%)" stroke-width="1.5"></path><path d="M707.67 357.07L707.67 357.07" stroke="hsl(0, 0%, 0%)" stroke-width="1.5"></path><path d="M707.67 357.07L844.48 339.47" stroke="hsl(0, 0%, 0%)" stroke-width="1.5"></path><path d="M707.67 357.07L663.96 533.99" stroke="hsl(0, 0%, 0%)" stroke-width="1.5"></path><path d="M707.67 357.07L560.08 507.99" stroke="hsl(0, 0%, 0%)" stroke-width="1.5"></path><path d="M707.67 357.07L859.57 505.11" stroke="hsl(0, 0%, 0%)" stroke-width="1.5"></path><path d="M663.96 533.99L663.96 533.99" stroke="hsl(0, 0%, 0%)" stroke-width="1.5"></path><path d="M663.96 533.99L679.01 676.53" stroke="hsl(0, 0%, 0%)" stroke-width="1.5"></path><path d="M679.01 676.53L679.01 676.53" stroke="hsl(0, 0%, 0%)" stroke-width="1.5"></path><path d="M679.01 676.53L859.57 505.11" stroke="hsl(0, 0%, 0%)" stroke-width="1.5"></path><path d="M844.48 339.47L844.48 339.47" stroke="hsl(0, 0%, 0%)" stroke-width="1.5"></path><path d="M844.48 339.47L859.57 505.11" stroke="hsl(0, 0%, 0%)" stroke-width="1.5"></path><path d="M844.48 339.47L940.11 553.71" stroke="hsl(0, 0%, 0%)" stroke-width="1.5"></path><path d="M844.48 339.47L663.96 533.99" stroke="hsl(0, 0%, 0%)" stroke-width="1.5"></path><path d="M844.48 339.47L1136.9 356.12" stroke="hsl(0, 0%, 0%)" stroke-width="1.5"></path><path d="M859.57 505.11L859.57 505.11" stroke="hsl(0, 0%, 0%)" stroke-width="1.5"></path><path d="M859.57 505.11L940.11 553.71" stroke="hsl(0, 0%, 0%)" stroke-width="1.5"></path><path d="M859.57 505.11L663.96 533.99" stroke="hsl(0, 0%, 0%)" stroke-width="1.5"></path><path d="M940.11 553.71L940.11 553.71" stroke="hsl(0, 0%, 0%)" stroke-width="1.5"></path><path d="M940.11 553.71L993.16 676.6" stroke="hsl(0, 0%, 0%)" stroke-width="1.5"></path><path d="M993.16 676.6L993.16 676.6" stroke="hsl(0, 0%, 0%)" stroke-width="1.5"></path><path d="M993.16 676.6L1093.94 689.29" stroke="hsl(0, 0%, 0%)" stroke-width="1.5"></path><path d="M1136.9 356.12L1136.9 356.12" stroke="hsl(0, 0%, 0%)" stroke-width="1.5"></path><path d="M1136.9 356.12L1136.5 502.52" stroke="hsl(0, 0%, 0%)" stroke-width="1.5"></path><path d="M1136.9 356.12L1282.49 250.6" stroke="hsl(0, 0%, 0%)" stroke-width="1.5"></path><path d="M1136.5 502.52L1136.5 502.52" stroke="hsl(0, 0%, 0%)" stroke-width="1.5"></path><path d="M1136.5 502.52L1250.23 388.22" stroke="hsl(0, 0%, 0%)" stroke-width="1.5"></path><path d="M1093.94 689.29L1093.94 689.29" stroke="hsl(0, 0%, 0%)" stroke-width="1.5"></path><path d="M1093.94 689.29L1251.09 701.98" stroke="hsl(0, 0%, 0%)" stroke-width="1.5"></path><path d="M1093.94 689.29L1136.5 502.52" stroke="hsl(0, 0%, 0%)" stroke-width="1.5"></path><path d="M1241.7 -112.4L1241.7 -112.4" stroke="hsl(0, 0%, 0%)" stroke-width="1.5"></path><path d="M1241.7 -112.4L1254.64 48.91" stroke="hsl(0, 0%, 0%)" stroke-width="1.5"></path><path d="M1241.7 -112.4L1146.34 72.17" stroke="hsl(0, 0%, 0%)" stroke-width="1.5"></path><path d="M1241.7 -112.4L1449.69 -86.61" stroke="hsl(0, 0%, 0%)" stroke-width="1.5"></path><path d="M1241.7 -112.4L1429.84 69.12" stroke="hsl(0, 0%, 0%)" stroke-width="1.5"></path><path d="M1254.64 48.91L1254.64 48.91" stroke="hsl(0, 0%, 0%)" stroke-width="1.5"></path><path d="M1254.64 48.91L1429.84 69.12" stroke="hsl(0, 0%, 0%)" stroke-width="1.5"></path><path d="M1254.64 48.91L1282.49 250.6" stroke="hsl(0, 0%, 0%)" stroke-width="1.5"></path><path d="M1282.49 250.6L1282.49 250.6" stroke="hsl(0, 0%, 0%)" stroke-width="1.5"></path><path d="M1282.49 250.6L1126.97 223.76" stroke="hsl(0, 0%, 0%)" stroke-width="1.5"></path><path d="M1282.49 250.6L1409.54 358.54" stroke="hsl(0, 0%, 0%)" stroke-width="1.5"></path><path d="M1251.09 701.98L1251.09 701.98" stroke="hsl(0, 0%, 0%)" stroke-width="1.5"></path><path d="M1251.09 701.98L1405.71 683.27" stroke="hsl(0, 0%, 0%)" stroke-width="1.5"></path><path d="M1429.84 69.12L1429.84 69.12" stroke="hsl(0, 0%, 0%)" stroke-width="1.5"></path><path d="M1409.54 358.54L1409.54 358.54" stroke="hsl(0, 0%, 0%)" stroke-width="1.5"></path><path d="M1409.54 358.54L1250.23 388.22" stroke="hsl(0, 0%, 0%)" stroke-width="1.5"></path><path d="M1405.71 683.27L1405.71 683.27" stroke="hsl(0, 0%, 0%)" stroke-width="1.5"></path><path d="M1603.28 -111.24L1603.28 -111.24" stroke="hsl(0, 0%, 0%)" stroke-width="1.5"></path><path d="M1603.28 -111.24L1543.69 47.59" stroke="hsl(0, 0%, 0%)" stroke-width="1.5"></path><path d="M1603.28 -111.24L1429.84 69.12" stroke="hsl(0, 0%, 0%)" stroke-width="1.5"></path><path d="M1603.28 -111.24L1604.84 228.35" stroke="hsl(0, 0%, 0%)" stroke-width="1.5"></path><path d="M1603.28 -111.24L1241.7 -112.4" stroke="hsl(0, 0%, 0%)" stroke-width="1.5"></path><path d="M1603.28 -111.24L1254.64 48.91" stroke="hsl(0, 0%, 0%)" stroke-width="1.5"></path><path d="M1604.84 228.35L1604.84 228.35" stroke="hsl(0, 0%, 0%)" stroke-width="1.5"></path><path d="M1604.84 228.35L1573.58 380.04" stroke="hsl(0, 0%, 0%)" stroke-width="1.5"></path><path d="M1604.84 228.35L1543.69 47.59" stroke="hsl(0, 0%, 0%)" stroke-width="1.5"></path><path d="M1573.58 380.04L1573.58 380.04" stroke="hsl(0, 0%, 0%)" stroke-width="1.5"></path><path d="M1573.58 380.04L1409.54 358.54" stroke="hsl(0, 0%, 0%)" stroke-width="1.5"></path><path d="M1573.58 380.04L1586.6 556.05" stroke="hsl(0, 0%, 0%)" stroke-width="1.5"></path><path d="M1573.58 380.04L1392.65 234.2" stroke="hsl(0, 0%, 0%)" stroke-width="1.5"></path><path d="M1573.58 380.04L1311.71 521.82" stroke="hsl(0, 0%, 0%)" stroke-width="1.5"></path><path d="M1586.6 556.05L1586.6 556.05" stroke="hsl(0, 0%, 0%)" stroke-width="1.5"></path><circle r="25" cx="-85.2" cy="698.27" fill="url(&quot;#SvgjsRadialGradient1313&quot;)"></circle><circle r="25" cx="348.12" cy="701.78" fill="url(&quot;#SvgjsRadialGradient1313&quot;)"></circle><circle r="25" cx="491.27" cy="658.2" fill="url(&quot;#SvgjsRadialGradient1313&quot;)"></circle><circle r="25" cx="792.6" cy="691.55" fill="url(&quot;#SvgjsRadialGradient1313&quot;)"></circle><circle r="25" cx="989.27" cy="387.74" fill="url(&quot;#SvgjsRadialGradient1313&quot;)"></circle><circle r="25" cx="1146.34" cy="72.17" fill="url(&quot;#SvgjsRadialGradient1313&quot;)"></circle><circle r="25" cx="1126.97" cy="223.76" fill="url(&quot;#SvgjsRadialGradient1313&quot;)"></circle><circle r="25" cx="1250.23" cy="388.22" fill="url(&quot;#SvgjsRadialGradient1313&quot;)"></circle><circle r="25" cx="1311.71" cy="521.82" fill="url(&quot;#SvgjsRadialGradient1313&quot;)"></circle><circle r="25" cx="1449.69" cy="-86.61" fill="url(&quot;#SvgjsRadialGradient1313&quot;)"></circle><circle r="25" cx="1392.65" cy="234.2" fill="url(&quot;#SvgjsRadialGradient1313&quot;)"></circle><circle r="25" cx="1430.74" cy="491.46" fill="url(&quot;#SvgjsRadialGradient1313&quot;)"></circle><circle r="25" cx="1543.69" cy="47.59" fill="url(&quot;#SvgjsRadialGradient1313&quot;)"></circle><circle r="25" cx="1576.13" cy="710.68" fill="url(&quot;#SvgjsRadialGradient1313&quot;)"></circle><circle r="5" cx="-77.76" cy="546.5" fill="#808080"></circle><circle r="5" cx="78.3" cy="551.51" fill="#808080"></circle><circle r="5" cx="88.19" cy="646.46" fill="#808080"></circle><circle r="5" cx="243.75" cy="503.32" fill="#808080"></circle><circle r="5" cx="221.01" cy="700.72" fill="#808080"></circle><circle r="5" cx="345.61" cy="491.94" fill="#808080"></circle><circle r="5" cx="488.64" cy="409.01" fill="#808080"></circle><circle r="5" cx="560.08" cy="507.99" fill="#808080"></circle><circle r="5" cx="707.67" cy="357.07" fill="#808080"></circle><circle r="5" cx="663.96" cy="533.99" fill="#808080"></circle><circle r="5" cx="679.01" cy="676.53" fill="#808080"></circle><circle r="5" cx="844.48" cy="339.47" fill="#808080"></circle><circle r="5" cx="859.57" cy="505.11" fill="#808080"></circle><circle r="5" cx="940.11" cy="553.71" fill="#808080"></circle><circle r="5" cx="993.16" cy="676.6" fill="#808080"></circle><circle r="5" cx="1136.9" cy="356.12" fill="#808080"></circle><circle r="5" cx="1136.5" cy="502.52" fill="#808080"></circle><circle r="5" cx="1093.94" cy="689.29" fill="#808080"></circle><circle r="5" cx="1241.7" cy="-112.4" fill="#808080"></circle><circle r="5" cx="1254.64" cy="48.91" fill="#808080"></circle><circle r="5" cx="1282.49" cy="250.6" fill="#808080"></circle><circle r="5" cx="1251.09" cy="701.98" fill="#808080"></circle><circle r="5" cx="1429.84" cy="69.12" fill="#808080"></circle><circle r="5" cx="1409.54" cy="358.54" fill="#808080"></circle><circle r="5" cx="1405.71" cy="683.27" fill="#808080"></circle><circle r="5" cx="1603.28" cy="-111.24" fill="#808080"></circle><circle r="5" cx="1604.84" cy="228.35" fill="#808080"></circle><circle r="5" cx="1573.58" cy="380.04" fill="#808080"></circle><circle r="5" cx="1586.6" cy="556.05" fill="#808080"></circle></g><defs><mask id="SvgjsMask1312"><rect width="1440" height="560" fill="#ffffff"></rect></mask><radialGradient id="SvgjsRadialGradient1313"><stop stop-color="#ffffff" offset="0.1"></stop><stop stop-color="rgba(0, 0, 0, 1)" offset="0.2"></stop><stop stop-color="rgba(0, 0, 0, 0)" offset="1"></stop></radialGradient></defs></svg>